
<global>
amp_veltrack=0
ampeg_attack=0.01
ampeg_release=0.35
</global>

<group>
group_label=Group_0-45
lpc_hicc1=42
lpc_locc1=0

<region>
hivel=127
key=a#1
loop_end=272431
loop_mode=loop_continuous
loop_start=88558
loop_xfade=22280
lovel=1
lpc=2E4TQueVw8Lppt1CIBqOwuYozUEGbHLBdnbgQULG48GPdKtA2KqFQed+VsGRlLHABz1zQcwzBMGpWT28e5TaP7L4EcASUlBAn8p7P7FK4MBsighBs8BjwCsBgL/bvQw/
lpc_rms=-27.00
offset=1072
sample=Bass_vibrato_PP_A#1.opus
</region>

<region>
hikey=a#2
hivel=127
lokey=a2
loop_end=269115
loop_mode=loop_continuous
loop_start=87480
loop_xfade=22009
lovel=1
lpc=HFcOQhRMp8Kz6ahCT61GwhNPRkEXVmzAI71oQUuQnMEXvNc/Kjm0QWS1q8G46pq+q59wQRFLEMHAsX3AEf4OQYStD8DTFsLAZGESQdFnxsAVrKVAJpvIwGe2j0C6wN6/
lpc_rms=-31.06
offset=3171
pitch_keycenter=a#2
sample=Bass_vibrato_PP_A#2.opus
</region>

<region>
hikey=a#3
hivel=127
lokey=a3
loop_end=263405
loop_mode=loop_continuous
loop_start=85624
loop_xfade=21542
lovel=1
lpc=zrd/QdZiHsIqkCRCm/m8wePis0DAUAg/zZxlQNn+1MCTFME+yzkNQTRFBcEo7b2+aT/HQItug8AgdRPARJS+QDbzhsCCN4U/QwU0P9EJML8VUJs/REPxv/YrpT+z5by+
lpc_rms=-34.59
pitch_keycenter=a#3
sample=Bass_vibrato_PP_A#3.opus
</region>

<region>
hikey=G5
hivel=127
lokey=a4
loop_end=280170
loop_mode=loop_continuous
loop_start=91074
loop_xfade=22913
lovel=1
lpc=zc3NQTmKicL5rJhCIl82woOKcEHPowDBaECVQQatvcEMUDZBc4MDQY1HccF8IkZApV01Qe6zNsHt5MM+nr82QSq9NsE1fkW/V2IlQSVBJMHpM7lAJtWzvoNFgcDcbUhA
lpc_rms=-28.18
offset=4378
pitch_keycenter=A#4
sample=Bass_vibrato_PP_A#4.opus
</region>

<region>
hikey=c2
hivel=127
lokey=b1
loop_end=288625
loop_mode=loop_continuous
loop_start=93822
loop_xfade=23604
lovel=1
lpc=PSBUQuBMB8MK4hNDQwq+wsu2GEJpYLHB+/AGQuAuB8L0H8lAf6+pQXQPlsEPQ73AXnOnQe+DYcHZoAm/fBcNQUv7G8FrqaVAy6mNQHe0KMFtREdBCjACwUKrbECXNNS/
lpc_rms=-26.11
offset=979
pitch_keycenter=c2
sample=Bass_vibrato_PP_C2.opus
</region>

<region>
hikey=c3
hivel=127
lokey=b2
loop_end=273205
loop_mode=loop_continuous
loop_start=88810
loop_xfade=22343
lovel=1
lpc=eqsdQqj4u8JvmcZCpH2Gwv7y4kE4FU/BNa2CQYnZk8G5vWxAWoqWQc9kpcFiTQlARUJHQX24QsEPq3RA1EMQQFSm5b6MplDAE6fiQDkPA8HxIyNBjY0ZwQA4iUAio4K/
lpc_rms=-28.86
offset=2484
pitch_keycenter=c3
sample=Bass_vibrato_PP_C3.opus
</region>

<region>
hikey=c4
hivel=127
lokey=b3
loop_end=274252
loop_mode=loop_continuous
loop_start=89150
loop_xfade=22429
lovel=1
lpc=HEbKQqJOhMPhYo5DsbYjwzOsGELK7oFAbzSpQfrEIsIh1QPA5JGIQsAwgcJm4gw/3fUjQrDXxcFjnqrBQAg5Qt9v+MEM8oBAnZ7IQC3uksA4G/5AdFyHwScfm0GIOvHA
lpc_rms=-16.80
offset=4945
pitch_keycenter=c4
sample=Bass_vibrato_PP_C4.opus
</region>

<region>
hikey=d2
hivel=127
lokey=c#2
loop_end=285077
loop_mode=loop_continuous
loop_start=92669
loop_xfade=23314
lovel=1
lpc=a1pOQhFYAsMxwQ5DuLSzwsso9kEstKTBimQrQvpyLcKBuSlAC7QRQuyG6MGZWc3AXPrNQRzOgcGLAxrAeAsHQb8jhMANeAHAw5zKQKQAtsBUokhAYDjsPyANecCIzcU/
lpc_rms=-25.45
offset=686
pitch_keycenter=d2
sample=Bass_vibrato_PP_D2.opus
</region>

<region>
hikey=d3
hivel=127
lokey=c#3
loop_end=269933
loop_mode=loop_continuous
loop_start=87746
loop_xfade=22076
lovel=1
lpc=kcwCQl0LpsKGMrBC2i9Ywjx+ekHHDgXAAWVWQVQot8F/yD5BY7NBQe3DicFaFLC/8ROSQT/Ej8FZbrlAN9SUQGR9mMDRP8W/O4z1QGq/GMHJvQlBeOGuwAC6Jb898e0/
lpc_rms=-28.19
offset=7098
pitch_keycenter=d3
sample=Bass_vibrato_PP_D3.opus
</region>

<region>
hikey=d4
hivel=127
lokey=c#4
loop_end=296265
loop_mode=loop_continuous
loop_start=96306
loop_xfade=24229
lovel=1
lpc=azuYQg2tOcPA/ThDoBy8wjYCMEHlMzM/UN4LQv3pRMKbASdBSzobQvpHDsLW6M7ALvfbQSOL1cBWE73BVeUDQmX7m8H0yZM//OwJQfNuTMGrbURBhHmswFUuscA21NxA
lpc_rms=-20.66
offset=5429
pitch_keycenter=d4
sample=Bass_vibrato_PP_D4.opus
</region>

<region>
hikey=e2
hivel=127
lokey=d#2
loop_end=284353
loop_mode=loop_continuous
loop_start=92433
loop_xfade=23255
lovel=1
lpc=re01Qvmi2sLJ2d1CYiyCwlx2rUGjtJ3BRvsSQi6o9sEwQEbALx7iQXTFh8Fyi//AKSCFQQr33sCLYRrAxiF8QJrkEMCAbQ8/6HGBQN65ksCjpfs/j62eP3uJBsA4+aS9
lpc_rms=-27.09
offset=122
pitch_keycenter=e2
sample=Bass_vibrato_PP_E2.opus
</region>

<region>
hikey=e3
hivel=127
lokey=d#3
loop_end=265723
loop_mode=loop_continuous
loop_start=86378
loop_xfade=21731
lovel=1
lpc=0wTZQYfigMJ56X9CmwMcwsq6S0Ghj/2/DIvMQAqTRsElFAtBxVyUQKPAC8FVPtM/8fGKQPrbhMDPYum+0ZXCQMFC18Ap/y1A4xl8QHnICsH0XR9B5/fqwKd7bz+Sfm8/
lpc_rms=-30.34
offset=2675
pitch_keycenter=e3
sample=Bass_vibrato_PP_E3.opus
</region>

<region>
hikey=e4
hivel=127
lokey=d#4
loop_end=275539
loop_mode=loop_continuous
loop_start=89568
loop_xfade=22534
lovel=1
lpc=mauvQrPIZMMub4VDUi0xw05+bEI7+8jBLdOaQtDC6MIuQIVCqzjrQQ+7f8KC1DdB8hsiQteU1cFNt+vBQvF1Qi64JsJweLrAMacVQuWuLMKtIghC04OiwdrkIkGaiHk+
lpc_rms=-20.60
offset=8618
pitch_keycenter=e4
sample=Bass_vibrato_PP_E4.opus
</region>

<region>
hikey=f#2
hivel=127
lokey=f2
loop_end=287740
loop_mode=loop_continuous
loop_start=93535
loop_xfade=23532
lovel=1
lpc=EzRdQvtSAMO0yPFCUtdywmzHsUBMOTLA8O3BQRmyosHdUGTB0GMlQqeVtcFNQyvB8zGrQfuEDcENLXXAHabXQAsG+L/IYwfAhfK4QDTcA8HkSvtAA+yJwNd1Rz8qcyS/
lpc_rms=-25.12
pitch_keycenter=f#2
sample=Bass_vibrato_PP_F#2.opus
</region>

<region>
hikey=f#3
hivel=127
lokey=f3
loop_end=272904
loop_mode=loop_continuous
loop_start=88712
loop_xfade=22319
lovel=1
lpc=EPcDQ5fnmMM9DoxDIDYjw98Wc0KFIpzBlzodQqw1S8JhDt9BA8GAQUykqsA65/zBsUkLQv44mcGnMMnAGCUXQoXEWMJ0r0dCiCDpwZP6k0HYXKjBhzS/QQ3rGsIUksNB
lpc_rms=-16.99
offset=3107
pitch_keycenter=f#3
sample=Bass_vibrato_PP_F#3.opus
</region>

<region>
hikey=f#4
hivel=127
lokey=f4
loop_end=271336
loop_mode=loop_continuous
loop_start=88202
loop_xfade=22190
lovel=1
lpc=o6PmQp0Zo8MxA8VDoa2Hw+r9vUKK6U3BRAt4Qvy7/sJRWMJCRJyCQdfSpMK0zShCMlDhQdlWGMKh4LfB0W6mQuM5n8JN81lBMfJJQihikcLCL4FCLrQNwlaW4kBUsBdA
lpc_rms=-16.22
offset=10419
pitch_keycenter=f#4
sample=Bass_vibrato_PP_F#4.opus
</region>

<region>
hikey=g#2
hivel=127
lokey=g2
loop_end=279026
loop_mode=loop_continuous
loop_start=90702
loop_xfade=22819
lovel=1
lpc=M6SKQm+jKsM57zRDnTDlwo+vCUIzIzLBw+sMQl3lP8LXBRpBwOtIQlWQU8ITMStAHrkUQvgl48EbHrbAZsu1QQ4uD8GnVDDB8aOJQRhjCMGbVYFAfsLWwAiftUCYtijA
lpc_rms=-24.89
offset=1868
pitch_keycenter=g#2
sample=Bass_vibrato_PP_G#2.opus
</region>

<region>
hikey=g#3
hivel=127
lokey=g3
loop_end=271165
loop_mode=loop_continuous
loop_start=88147
loop_xfade=22176
lovel=1
lpc=ILCfQt+GJ8PYagND58eAwqbNYkGMHA68hmpKQSQXpcGb/n5BpaaQQLreaj/KKxfBq3wnvra3ZEGQmKTBxG9cQUY5AECrLBjBCSAIQR9+jb9u2CnB6K9kQcIQzsEtXZBB
lpc_rms=-20.71
offset=2899
pitch_keycenter=g#3
sample=Bass_vibrato_PP_G#3.opus
</region>

<region>
hikey=g#4
hivel=127
lokey=g4
loop_end=278194
loop_mode=loop_continuous
loop_start=90432
loop_xfade=22751
lovel=1
lpc=hcUpQuK06sIg/AVD4lirwh14CUJPw5zBRlMWQgROScJNgwlCWtRaP+XEkMEhtx0/W/ehQWj9qMF5p6dAA6xiQYaFi8HhVqJA1DkWQY7Ki8HWgoFBDNlawC5/GcHi+thA
lpc_rms=-24.01
offset=20992
pitch_keycenter=g#4
sample=Bass_vibrato_PP_G#4.opus
</region>
</group>

<group>
group_label=Group_46-90
lpc_hicc1=84
lpc_locc1=43

<region>
hivel=127
key=a#1
loop_end=277417
loop_mode=loop_continuous
loop_start=90179
loop_xfade=22688
lovel=1
lpc=tAXiQdGWocLSOLpCiopewjyzrkF3UInB5wSnQdjmVcGwQjq/V2sDQZwdYsDbVavARJauQAijr75Hd6M+9SC7vxVjKsBxsspAzeXFvwGitcAL1tJAnv3lv7ZFsr/ksyI/
lpc_rms=-22.17
offset=2002
sample=Bass_vibrato_MF_A#1.opus
</region>

<region>
hikey=a#2
hivel=127
lokey=a2
loop_end=274902
loop_mode=loop_continuous
loop_start=89361
loop_xfade=22482
lovel=1
lpc=IAyxQZt0f8KTmZlC8WJMwlXgwEFGO4DB7fN3QSwBM8GP80JACIWNQJ4zrMBEmQG/x1N7QLyWn79xK7+/fqQXQNnMEMAqP5w/YlsDPmOrr79iSitA04dTwJ/MCEAFBwO/
lpc_rms=-25.24
offset=4005
pitch_keycenter=a#2
sample=Bass_vibrato_MF_A#2.opus
</region>

<region>
hikey=a#3
hivel=127
lokey=a3
loop_end=264983
loop_mode=loop_continuous
loop_start=86137
loop_xfade=21671
lovel=1
lpc=8Sd9QUAbOsJwHGpCcFUjwm8xikENkM3Ai0flQIgEB8Gz/SRAxKL9QOCyOsHuz7FACn51Pgl/Cb874gTAJq50QIgUJsCPV0w/jwiQvsuiKL993CBA/PoTwOCsNb6wXls/
lpc_rms=-27.29
offset=2536
pitch_keycenter=a#3
sample=Bass_vibrato_MF_A#3.opus
</region>

<region>
hikey=G5
hivel=127
lokey=a4
loop_end=341869
loop_mode=loop_continuous
loop_start=111130
loop_xfade=27959
lovel=1
lpc=/bSdQZYbU8I7T2JCUwQEwhQgekHlYSbB8s4mQVg5IMGc0jNA7cLRQMuy48BZ58m+lg+bQK9rBsCK59a/nZu9QLw45sDwuDxAG5SnvnOiFr58lQxAsKEnP5MlxMA8YoFA
lpc_rms=-25.62
offset=1123
pitch_keycenter=A#4
sample=Bass_vibrato_MF_A#4.opus
</region>

<region>
hikey=c2
hivel=127
lokey=b1
loop_end=291700
loop_mode=loop_continuous
loop_start=94822
loop_xfade=23856
lovel=1
lpc=9ETsQXe8qsIzZstCcMl+wrA8v0GtwFDB5daLQQ2yjcHmyw9B3YyIP3Bwm8DdAKa/OEDyQPPe2MCDc11ASAJwPufjpsDotcdAb1OHP6kmFcEyFz5B3ejywKB1DUCCg6S+
lpc_rms=-21.64
offset=6076
pitch_keycenter=c2
sample=Bass_vibrato_MF_C2.opus
</region>

<region>
hikey=c3
hivel=127
lokey=b2
loop_end=275660
loop_mode=loop_continuous
loop_start=89608
loop_xfade=22544
lovel=1
lpc=SIjMQb6ciMIQ/JVCHV9CwqBpzkFypmLB6FCvQHvmgD5DHznA/ZydQKRtiMDsfhg/mV2bPYLjwD64SKs/s7hlvkDUVMDyCKFAD64mwM/BE8A6F8JATOmywL7hKUB3hTy/
lpc_rms=-24.61
offset=2374
pitch_keycenter=c3
sample=Bass_vibrato_MF_C3.opus
</region>

<region>
hikey=c4
hivel=127
lokey=b3
loop_end=274541
loop_mode=loop_continuous
loop_start=89244
loop_xfade=22452
lovel=1
lpc=WmOHQgSpScPfloFDgm05w0zxk0L/TKPBA3XeQbFBK8JkSlZBLHAvQn6jY8JynnNBRkixQYG3ucGtWT0/ZnNoQZ9owsAwEw/BUm8LQQkdub/NFD5AGUYVwWrDFkHxryLA
lpc_rms=-14.91
pitch_keycenter=c4
sample=Bass_vibrato_MF_C4.opus
</region>

<region>
hikey=d2
hivel=127
lokey=c#2
loop_end=291265
loop_mode=loop_continuous
loop_start=94680
loop_xfade=23820
lovel=1
lpc=I6UAQlrgvcIzKvBCyVOuwgPdOkJUMQzCqEcsQiMWMcIk+tFByG2jwBAAA77QwjLBkRKjQfk/lMFYBzxBz5anwCD4lz0Qr1Q/ALY3QEbDm8BiJzlAfPKVP52jMsAFw4s/
lpc_rms=-21.32
offset=1535
pitch_keycenter=d2
sample=Bass_vibrato_MF_D2.opus
</region>

<region>
hikey=d3
hivel=127
lokey=c#3
loop_end=279631
loop_mode=loop_continuous
loop_start=90898
loop_xfade=22869
lovel=1
lpc=+JgBQrQ/wMJ5U+hCyjSawp0XC0LxNIfByzuIQRO3lsGzqBZBBRjYQNCwJcEXI3HAMVRhQT4jLcEkbJFAC+E2P8aaQ8CydYI/Ryo0QGJM+8A4kFVBfW1cwUwW8kAFse2/
lpc_rms=-22.40
offset=3430
pitch_keycenter=d3
sample=Bass_vibrato_MF_D3.opus
</region>

<region>
hikey=d4
hivel=127
lokey=c#4
loop_end=291518
loop_mode=loop_continuous
loop_start=94763
loop_xfade=23841
lovel=1
lpc=i4SAQrGXN8Pr/lxDG3oNwxWtUEJJKAnCXsGHQnA4qsJd5kNCyHu5QK2BvsGYEcjAvE8DQmI8osHoMEzBvfYPQuuj7sH8WgM/+SKKQT6DW8FAEQVBFj7lvniO+8C8mr1A
lpc_rms=-16.88
offset=1998
pitch_keycenter=d4
sample=Bass_vibrato_MF_D4.opus
</region>

<region>
hikey=e2
hivel=127
lokey=d#2
loop_end=284719
loop_mode=loop_continuous
loop_start=92552
loop_xfade=23285
lovel=1
lpc=QGXtQRb+ssJXkORC16ipwlAQQkLEywjC9+8DQiho3sHA+jdBU6eiQFGMAcHSAqq/DwnXQE36HcDhUCPA1pSeQIhCsMD24HdAl4ibvqt8nr/kEps/6RTlv0nx7T/NQ2e/
lpc_rms=-22.09
offset=1283
pitch_keycenter=e2
sample=Bass_vibrato_MF_E2.opus
</region>

<region>
hikey=e3
hivel=127
lokey=d#3
loop_end=270838
loop_mode=loop_continuous
loop_start=88040
loop_xfade=22150
lovel=1
lpc=TTHWQf7JlMKwTKZCb3ZSwvaMykEhXz/BsVv4QC4K8cD0GXxAXP6hQHIxFcEORX9AiMsYP31w6L9ydUpAoJ2qvxcxFsD6OX1AltLCv0eqn8C+8y9BVtEswZUIr0Do3ZW/
lpc_rms=-24.45
offset=1268
pitch_keycenter=e3
sample=Bass_vibrato_MF_E3.opus
</region>

<region>
hikey=e4
hivel=127
lokey=d#4
loop_end=283607
loop_mode=loop_continuous
loop_start=92191
loop_xfade=23194
lovel=1
lpc=jh5rQiJJLcObxVxD+cwdw8qZh0IVIgPCi8ZJQixUg8KBfyVCcBmnQNAV6sHyeE9Bgts5QYCkUcEPDSXB55IeQnjMP8JeFt1BLfWGQOxh4cHzHwRClYSCwTKvd76VsypA
lpc_rms=-17.25
offset=5207
pitch_keycenter=e4
sample=Bass_vibrato_MF_E4.opus
</region>

<region>
hikey=f#2
hivel=127
lokey=f2
loop_end=292423
loop_mode=loop_continuous
loop_start=95057
loop_xfade=23915
lovel=1
lpc=xb4MQuKh0MI0fP5C8hSownaMGUKnCOLByacWQvPlFsLEHplBPYOhPxxcvsDpobvAExBhQZ8QDMF8GBxALU8gv6s36T8+KFbAaYxGQI3fob83Xoe9ywYGvrtRFD7cMDY+
lpc_rms=-18.72
offset=8840
pitch_keycenter=f#2
sample=Bass_vibrato_MF_F#2.opus
</region>

<region>
hikey=f#3
hivel=127
lokey=f3
loop_end=294966
loop_mode=loop_continuous
loop_start=95884
loop_xfade=24123
lovel=1
lpc=oq6nQvewccNZzIlDMTQkw7Yja0Jn64rB3ZL6QPWzD8Cbt4zBdDFJQpA9QMKdtlRAS6y3QViKmsEQ/gRB8jmdQENFC8HUG/xAVIDwwKutL0EwPJjBvKW2QaRmncFGDQJB
lpc_rms=-14.48
offset=1328
pitch_keycenter=f#3
sample=Bass_vibrato_MF_F#3.opus
</region>

<region>
hikey=f#4
hivel=127
lokey=f4
loop_end=302551
loop_mode=loop_continuous
loop_start=98349
loop_xfade=24743
lovel=1
lpc=I7yzQo1Bh8Oj0atDJ5t4w90I6kK6CGjC9KaSQqK2t8J+vWlCC4geQfXqNMJxkrJBJWICQdaW679TudfBYH5CQkRnKcKRgQVBvAWQQVpYccGvUiRB8OUDweT5bcB/uMBA
lpc_rms=-12.56
offset=5199
pitch_keycenter=f#4
sample=Bass_vibrato_MF_F#4.opus
</region>

<region>
hikey=g#2
hivel=127
lokey=g2
loop_end=281575
loop_mode=loop_continuous
loop_start=91531
loop_xfade=23028
lovel=1
lpc=+KYUQjfP4ML1Yw1D/xzFwuesREI06Q3CnKIoQh/tJ8KyTNFBo2rCwKhLIMDR16/AQxVOQZ3jG8HtgqZAfDodwDhFmD92yB2/vbR+vdvBBb8itl1AunuhwIBPXUCCGo+/
lpc_rms=-19.38
offset=3675
pitch_keycenter=g#2
sample=Bass_vibrato_MF_G#2.opus
</region>

<region>
hikey=g#3
hivel=127
lokey=g3
loop_end=271449
loop_mode=loop_continuous
loop_start=88239
loop_xfade=22200
lovel=1
lpc=Y2uBQsP6K8MmxTVD/bjcwrmtLUInucnAu1ekPrq1k8Fqhe5BKWQFwcJs3L5oA/TAIxoOwCEmg0GvA9jB+WPQQYDqiMBxlYPBLDioQTe1I8FnlprAcP9jQRxmi8GRjAdB
lpc_rms=-16.15
offset=3771
pitch_keycenter=g#3
sample=Bass_vibrato_MF_G#3.opus
</region>

<region>
hikey=g#4
hivel=127
lokey=g4
loop_end=282517
loop_mode=loop_continuous
loop_start=91837
loop_xfade=23105
lovel=1
lpc=8MMRQj5m5cKvUxZDGkLdwpRRbEJTPB/CgTI9QuO7V8KCdg1Ck04Xv2KBmMEfGidBIXe7QDipF8FtoGpAGmr6QCgUesHb3xJBEu2PQExtisENDcNBzhiEwVXpBECCnPQ/
lpc_rms=-20.16
offset=4801
pitch_keycenter=g#4
sample=Bass_vibrato_MF_G#4.opus
</region>
</group>

<group>
group_label=Group_91-127
lpc_hicc1=127
lpc_locc1=85

<region>
hivel=127
key=a#1
loop_end=284894
loop_mode=loop_continuous
loop_start=92610
loop_xfade=23299
lovel=1
lpc=2u2jQfFca8KHKIlCJh0dwtAgD0H4cVm/liJTQBYpC79JPM7Ar2TDQALmMEAizRTBiYfzQAgneb+okyPARXjQP5I6C8D966FAX4iIwOxcpb+kcqdAdqBewNUf2zxmWQw/
lpc_rms=-16.41
offset=6324
sample=Bass_vibrato_FF_A#1.opus
</region>

<region>
hikey=a#2
hivel=127
lokey=a2
loop_end=278365
loop_mode=loop_continuous
loop_start=90487
loop_xfade=22765
lovel=1
lpc=qcFTQYRbEMJuGyNCol7HwYtCN0FrEhjBvAYxQWqxDsGNHnBA/C/yvWt6LbyezlPAp1SiQCFVBMD3ywbAXkmkQK9fvcBhDopAQj7wv7+DiD2wX0I+KJMIPppVfr6lAB4+
lpc_rms=-19.23
offset=3091
pitch_keycenter=a#2
sample=Bass_vibrato_FF_A#2.opus
</region>

<region>
hikey=a#3
hivel=127
lokey=a3
loop_end=269643
loop_mode=loop_continuous
loop_start=87652
loop_xfade=22052
lovel=1
lpc=hdtJQX0LBcJAMRBCpbSowcGEB0G9AGnAIUSHQFCuocBk3Jw/lkeIQGYXh8DS620+Cr1VP62ujj+HvjTASRdcQMRhaMBFDoNA6htdwJ39mz+zKi0/T3WJv9m72T3lb5M+
lpc_rms=-20.21
offset=1138
pitch_keycenter=a#3
sample=Bass_vibrato_FF_A#3.opus
</region>

<region>
hikey=G5
hivel=127
lokey=a4
loop_end=320312
loop_mode=loop_continuous
loop_start=104123
loop_xfade=26196
lovel=1
lpc=sq1EQboK/sF2ugpCirCtwbaPEEHxU6TA3WAcQfA4RsFtBOJAsRCJP7PBcsApQsG+kZ8PQP3Tjz+HXqDAd3sFQUEk2MA8l8o/Qdp1PuZYFD01dgo/snyHPiNNw7+yUoQ/
lpc_rms=-21.04
offset=3731
pitch_keycenter=A#4
sample=Bass_vibrato_FF_A#4.opus
</region>

<region>
hikey=c2
hivel=127
lokey=b1
loop_end=284413
loop_mode=loop_continuous
loop_start=92453
loop_xfade=23260
lovel=1
lpc=hDQpQYae1MFFFNlBVm5OwTqIVT+Oprg/CPC4PvSjNED3JgbBhs3SQFyA3T6mbMrARuPdQBrnbMDNPuk/EZ1LPUadMsBUuUxA/OrHv6AxpT6KXYy91PWJPs+MJb6tvhy+
lpc_rms=-16.37
offset=3883
pitch_keycenter=c2
sample=Bass_vibrato_FF_C2.opus
</region>

<region>
hikey=c3
hivel=127
lokey=b2
loop_end=277223
loop_mode=loop_continuous
loop_start=90116
loop_xfade=22672
lovel=1
lpc=nVhxQV7kIsLjMDpC5DkBwmRrmUGTf0jBz48KQdUjy8BjzopAyQkJwNz3oT8SVFDAx5pdQMmPw780s44/p+igviRlsL/ELgtAjhFBv6fxHsAycqNAQg+0wG31dUCEeZi/
lpc_rms=-20.45
offset=3063
pitch_keycenter=c3
sample=Bass_vibrato_FF_C3.opus
</region>

<region>
hikey=c4
hivel=127
lokey=b3
loop_end=291560
loop_mode=loop_continuous
loop_start=94776
loop_xfade=23844
lovel=1
lpc=A1EPQq1OyMJnautC+ZebwuVSFEKWybXBPVXBQS7p1cH1FmlB5gUIQSukh8F1s7hAiTWKPnCVHEC32rTAi/AGQSefG8FaoQpBXzOawLh0gz4BaJ5Am5QGwR3huUDIPlW/
lpc_rms=-11.89
offset=4035
pitch_keycenter=c4
sample=Bass_vibrato_FF_C4.opus
</region>

<region>
hikey=d2
hivel=127
lokey=c#2
loop_end=297389
loop_mode=loop_continuous
loop_start=96671
loop_xfade=24321
lovel=1
lpc=kq8iQWvOy8FTBNlBLwRywThce0BwsZC/hqhRQAMcH79UAsPACl/sQHK0YMB4jZm/Jj4vQEBT878aROU/AB/avmgKE8AvmRpA4pMlv5s7Wr9dNDM/x9kbP8/jSr/ql0M9
lpc_rms=-16.39
offset=5422
pitch_keycenter=d2
sample=Bass_vibrato_FF_D2.opus
</region>

<region>
hikey=d3
hivel=127
lokey=c#3
loop_end=270202
loop_mode=loop_continuous
loop_start=87834
loop_xfade=22098
lovel=1
lpc=g6WFQV9kOcJ9IlZC4+kLwlAzhkG5VyjBdwk9QSoPO8G5ScBA3hetPxjFW8B5VBTAwsrUQL0QhsCr2NI+s44EQJRF8r99Xyw/dZ4HvzSskL9EuYlAL5C0wCrogUB5sby/
lpc_rms=-19.02
offset=4009
pitch_keycenter=d3
sample=Bass_vibrato_FF_D3.opus
</region>

<region>
hikey=d4
hivel=127
lokey=c#4
loop_end=269300
loop_mode=loop_continuous
loop_start=87540
loop_xfade=22024
lovel=1
lpc=CpTbQY3wkcKu6q5CF7+Awja0F0L8RvLBN4QKQo2RCMKagLJBV9YWwcaWN0Coa03AoTnpP5LMpL4nDEW+dHQ5QAdkwMATnd5ArMIBwX79HEHw2wTBaQPqQCi8vsC3hzlA
lpc_rms=-14.42
offset=2015
pitch_keycenter=d4
sample=Bass_vibrato_FF_D4.opus
</region>

<region>
hikey=e2
hivel=127
lokey=d#2
loop_end=280712
loop_mode=loop_continuous
loop_start=91250
loop_xfade=22957
lovel=1
lpc=9a5MQW2fCsK69hxCN4K3wSy00kD5kVbAjkbeQOiOYsDExaTAn2T1QIS0g8B0P5q/XxBBQG3NT79U14i/yTdmQBsov8CoIp5AtpjOv6/KbL/lwH4/2KmrPQk+yj2Skc2+
lpc_rms=-17.06
offset=5910
pitch_keycenter=e2
sample=Bass_vibrato_FF_E2.opus
</region>

<region>
hikey=e3
hivel=127
lokey=d#3
loop_end=271074
loop_mode=loop_continuous
loop_start=88117
loop_xfade=22169
lovel=1
lpc=XF2YQdyLUcJJ9WtCrn4XwquNpUFCDG/BZq0sQdjnlMDV9Dy/5FCJQLP9nMB82ro/H6JsP43ShL/gL/4/4MuiPt28asDT0IRAAKYRwGMgkL8P80xAmmghwB1VAz/GZG8+
lpc_rms=-19.60
offset=2926
pitch_keycenter=e3
sample=Bass_vibrato_FF_E3.opus
</region>

<region>
hikey=e4
hivel=127
lokey=d#4
loop_end=285525
loop_mode=loop_continuous
loop_start=92815
loop_xfade=23351
lovel=1
lpc=KHOpQURNZ8LDuoZC2DcuwgyQmkH2hD/BiuF1QY0njMGFoxdB0NdZQPRo/8Bg2i4+tUEBQYPvB8FqO34/ubnIQOPHxcBp+Kw/W1ZxQHZR5sDwRQtBc+e3wNvFVD/DEYU/
lpc_rms=-15.33
offset=3918
pitch_keycenter=e4
sample=Bass_vibrato_FF_E4.opus
</region>

<region>
hikey=f#2
hivel=127
lokey=f2
loop_end=287055
loop_mode=loop_continuous
loop_start=93312
loop_xfade=23476
lovel=1
lpc=q85cQUoOEsJgVB5CkaKlwdJtLEBe7Ci/BZIDQdJG8sAb2jzAXZkAQVQSQ8A0zL3AVI8SQeO4o8C755E/zCLwP8K8gsDhblZARoTBvwj4AD8IQR+/x5OrP0eqh78fvLY+
lpc_rms=-15.19
offset=8127
pitch_keycenter=f#2
sample=Bass_vibrato_FF_F#2.opus
</region>

<region>
hikey=f#3
hivel=127
lokey=f3
loop_end=278508
loop_mode=loop_continuous
loop_start=90534
loop_xfade=22777
lovel=1
lpc=5w8AQsAjscIUfsVCWTJrwkaow0Hr2IHBRrCYQTkficGe1+I/yqGLQViymcENfwtAehgeQd0b/MCFQVO/CcLLQGYQfMDNUABA5ygKwHDrI0AlyYnAfM6nQEshisCfXuk/
lpc_rms=-11.75
offset=3074
pitch_keycenter=f#3
sample=Bass_vibrato_FF_F#3.opus
</region>

<region>
hikey=f#4
hivel=127
lokey=f4
loop_end=288429
loop_mode=loop_continuous
loop_start=93759
loop_xfade=23588
lovel=1
lpc=mUAcQoSX3sJJRQVDGzyywsLIGEIuKIzB+Se4QXRv8cHK/HlBgalEQRBZv8HLsUpB5IkOwHBwnEBdZ2XBfXC0QWkHlMF8f/M/LfU2QVmJP8HkyzBB4EMSwZ+fxj/DZ90/
lpc_rms=-10.09
offset=4284
pitch_keycenter=f#4
sample=Bass_vibrato_FF_F#4.opus
</region>

<region>
hikey=g#2
hivel=127
lokey=g2
loop_end=289303
loop_mode=loop_continuous
loop_start=94043
loop_xfade=23660
lovel=1
lpc=fy2JQZAVPMKzdVVCi7wBwhazS0FXjAnBL2FKQULNPsG3LUhAYqykQLFa3cCW1lQ/a+2NQKonz79k6K7AhZA4QX9oQMEDvQNBkY2mwPhOaUCImwTALMmgPh2CYj/5hwu/
lpc_rms=-15.73
offset=5860
pitch_keycenter=g#2
sample=Bass_vibrato_FF_G#2.opus
</region>

<region>
hikey=g#3
hivel=127
lokey=g3
loop_end=267025
loop_mode=loop_continuous
loop_start=86801
loop_xfade=21838
lovel=1
lpc=07YIQpc3vMIvCcpCgnxmwtNFx0FA1kHBogOrQP3bhsDK6jZA5TDgQIaMTcEsSYZAUXnFPwQIKUASaN3AYsABQXGVRMA8pf++8If5vgmDFj1Isa09UkerP3etKsCVX74/
lpc_rms=-13.68
offset=654
pitch_keycenter=g#3
sample=Bass_vibrato_FF_G#3.opus
</region>

<region>
hikey=g#4
hivel=127
lokey=g4
loop_end=280299
loop_mode=loop_continuous
loop_start=91116
loop_xfade=22923
lovel=1
lpc=dY+NQS3rSsKXfXZCCR8hwtgIZ0GjHQ3BGUqTQcnYnME7qepAANSKQGcgscCge4k+duufPxCiFD4rtD+9SrlaP7rgFcCuPlFAw7L6vw0ZHMBJAq5ATYfYvzEbNsCc8Oo/
lpc_rms=-16.53
offset=2828
pitch_keycenter=g#4
sample=Bass_vibrato_FF_G#4.opus
</region>
</group>